<svg xmlns="http://www.w3.org/2000/svg" width="1200" height="630" viewBox="0 0 1200 630">
  <defs>
    <linearGradient id="bg" x1="0" y1="0" x2="1" y2="1">
      <stop offset="0" stop-color="#ffffff"/>
      <stop offset="1" stop-color="#f1f5f9"/>
    </linearGradient>
  </defs>
  <rect width="1200" height="630" fill="url(#bg)"/>

  <!-- Play mark -->
  <g transform="translate(130 135) scale(1.15)">
    <path d="M160 110
             C160 90 176 74 196 74
             L196 74
             C206 74 216 78 224 84
             L388 190
             C416 208 416 248 388 266
             L224 372
             C216 378 206 382 196 382
             L196 382
             C176 382 160 366 160 346
             Z"
          fill="none" stroke="#1d4ed8" stroke-width="44" stroke-linejoin="round" stroke-linecap="round"/>
  </g>

  <text x="520" y="290" font-family="Arial, Helvetica, sans-serif" font-size="68" font-weight="700" fill="#0f172a">Purely Automation</text>
  <text x="520" y="360" font-family="Arial, Helvetica, sans-serif" font-size="32" font-weight="400" fill="#334155">Let your computer handle the busywork</text>
  <text x="520" y="405" font-family="Arial, Helvetica, sans-serif" font-size="32" font-weight="400" fill="#334155">so you can focus on higher leverage tasks</text>

  <rect x="520" y="455" width="520" height="6" rx="3" fill="#1d4ed8" opacity="0.35"/>
</svg>
